<svg class="ola-svg ola-icon" version="1.1" xmlns="http://www.w3.org/2000/svg" viewBox="0 0 40 40" style="fill: rgb(119, 119, 119); height: 30px; width: 30px;"><g><path d="M39 28.75h-1c0-10.08-8.17-18.25-18.25-18.25S1.5 18.67 1.5 28.75h-1C.5 18.12 9.12 9.5 19.75 9.5S39 18.12 39 28.75zM20.6 26l6.6-5.9.54.5-5.8 6.73c.06.2.1.4.1.63 0 1.12-.9 2.04-2.04 2.04-1.12 0-2.04-.92-2.04-2.04 0-1.13.92-2.04 2.04-2.04.2 0 .4.04.6.1zm10.7 1.3h3.26v1.3H31.3v-1.3zm1-7.2l.64 1.15-2.83 1.63-.64-1.13 2.83-1.64zm-6.08-1.6l-1.14-.65 1.64-2.82 1.13.65-1.63 2.83zm-6.87-5.1h1.3v3.27h-1.3V13.4zm-7.2 2.28l1.14-.66 1.62 2.83-1.13.66-1.64-2.82zM7.73 20.1l2.83 1.65-.65 1.13-2.83-1.63.65-1.14zM5 27.3h3.27v1.3H5v-1.3z"></path></g></svg>